<svg width="40" height="40" viewBox="0 0 40 40" fill="none" xmlns="http://www.w3.org/2000/svg">
<path d="M28.7163 20.071C27.9477 19.7056 27.1634 19.3909 26.3653 19.1272C28.9499 17.1872 30.6249 14.098 30.6249 10.625C30.6249 4.76641 25.8586 0 20 0C14.1413 0 9.37496 4.76641 9.37496 10.625C9.37496 14.1019 11.0537 17.1941 13.6432 19.1337C11.2707 19.9148 9.04449 21.1302 7.09606 22.7328C3.52325 25.6716 1.03911 29.7708 0.101376 34.2752C-0.19253 35.6866 0.159579 37.1363 1.06723 38.2524C1.97044 39.363 3.30973 40 4.74161 40H23.9843C24.8473 40 25.5468 39.3005 25.5468 38.4375C25.5468 37.5745 24.8473 36.875 23.9843 36.875H4.74161C4.07458 36.875 3.67215 36.5027 3.49169 36.2808C3.18004 35.8976 3.05942 35.3988 3.16075 34.9121C4.78223 27.1234 11.6522 21.4339 19.5857 21.242C19.7232 21.2473 19.8612 21.25 20 21.25C20.14 21.25 20.2795 21.2473 20.4182 21.2419C22.8495 21.2989 25.1878 21.8538 27.3748 22.8934C28.1542 23.2638 29.0863 22.9324 29.4567 22.153C29.8272 21.3736 29.4958 20.4415 28.7163 20.071ZM20.381 18.1154C20.2542 18.1131 20.1272 18.112 20 18.112C19.8739 18.112 19.7478 18.1132 19.6218 18.1155C15.6613 17.918 12.5 14.6337 12.5 10.625C12.5 6.48945 15.8644 3.125 20 3.125C24.1355 3.125 27.4999 6.48945 27.4999 10.625C27.4999 14.6327 24.3402 17.9163 20.381 18.1154Z" fill="#F0B587"/>
<path d="M38.4375 31.0156H34.1406V26.7188C34.1406 25.8558 33.4411 25.1562 32.5781 25.1562C31.7151 25.1562 31.0156 25.8558 31.0156 26.7188V31.0156H26.7187C25.8558 31.0156 25.1562 31.7152 25.1562 32.5781C25.1562 33.4411 25.8558 34.1406 26.7187 34.1406H31.0156V38.4375C31.0156 39.3005 31.7151 40 32.5781 40C33.4411 40 34.1406 39.3005 34.1406 38.4375V34.1406H38.4375C39.3005 34.1406 40 33.4411 40 32.5781C40 31.7152 39.3005 31.0156 38.4375 31.0156Z" fill="#F0B587"/>
</svg>
