<svg width="40" height="40" viewBox="0 0 40 40" fill="none" xmlns="http://www.w3.org/2000/svg">
<path d="M23.7184 23.3438H16.2859C15.664 23.3438 15.1598 23.8425 15.1598 24.4579V38.8857C15.1598 39.501 15.664 39.9998 16.2859 39.9998H23.7184C24.3404 39.9998 24.8446 39.501 24.8446 38.8857V24.4579C24.8446 23.8425 24.3404 23.3438 23.7184 23.3438ZM22.5923 37.7715H17.4121V25.572H22.5923V37.7715Z" fill="#F0B587"/>
<path d="M38.471 14.5981H30.9821C30.3601 14.5981 29.856 15.0969 29.856 15.7123V38.8859C29.856 39.5013 30.3601 40 30.9821 40H38.471C39.0929 40 39.5971 39.5013 39.5971 38.8859V15.7123C39.5971 15.097 39.0929 14.5981 38.471 14.5981ZM37.3448 37.7718H32.1082V16.8264H37.3448V37.7718Z" fill="#F0B587"/>
<path d="M9.02223 28.7476H1.53337C0.911399 28.7476 0.407227 29.2463 0.407227 29.8617V38.8861C0.407227 39.5014 0.911399 40.0002 1.53337 40.0002H9.02223C9.6442 40.0002 10.1484 39.5014 10.1484 38.8861V29.8617C10.1484 29.2465 9.6442 28.7476 9.02223 28.7476ZM7.89609 37.7719H2.65951V30.9758H7.89609V37.7719Z" fill="#F0B587"/>
<path d="M39.7097 1.1173C39.5384 0.883795 39.269 0.740278 38.9777 0.727377L28.7298 0.00318326C28.1078 -0.0429851 27.5658 0.418486 27.5191 1.03371C27.4724 1.64904 27.9388 2.18525 28.5608 2.23142L35.8137 2.7187L22.4797 13.0385L12.2881 5.1282C11.8529 4.78721 11.2316 4.81088 10.8241 5.18385L0.351043 15.0994C-0.0941757 15.5173 -0.11918 16.211 0.294785 16.6592C0.495678 16.9171 0.810597 17.0626 1.13942 17.0491C1.43645 17.045 1.71979 16.9248 1.92769 16.7149L11.6688 7.46765L21.7478 15.3221C22.1591 15.648 22.744 15.648 23.1554 15.3221L37.5702 4.22487L37.0069 11.1444C37.0041 11.7494 37.4681 12.2566 38.0768 12.3142H38.133C38.7135 12.317 39.2011 11.8829 39.2592 11.3115L39.9912 1.89715C40.0325 1.60724 39.9273 1.31573 39.7097 1.1173Z" fill="#F0B587"/>
</svg>
