<svg width="40" height="40" viewBox="0 0 40 40" fill="none" xmlns="http://www.w3.org/2000/svg">
<path d="M38.8274 0H35.2771C34.9662 0 34.6682 0.123435 34.4485 0.343275L11.7227 23.0691L16.9302 28.2766L39.656 5.55077C39.8758 5.331 39.9993 5.03296 39.9993 4.72211V1.17186C39.9993 0.524679 39.4746 0 38.8274 0V0Z" fill="#F0B587"/>
<path d="M4.67111 30.1322C3.97566 30.8277 3.60574 31.7367 3.57105 32.6534C2.66544 32.6788 1.76741 33.036 1.07617 33.7272C-0.358724 35.1621 -0.358724 37.4886 1.07617 38.9236C2.51107 40.3585 4.83759 40.3585 6.27257 38.9236C6.95959 38.2365 7.31677 37.3451 7.34591 36.445C8.24613 36.416 9.13768 36.0585 9.82478 35.3714L11.9529 33.2432L6.75647 28.0469L4.67111 30.1322Z" fill="#F0B587"/>
<path d="M21.6521 26.8643L26.8588 21.6575L28.2708 23.0695L23.0641 28.2762L21.6521 26.8643Z" fill="#F0B587"/>
<path d="M13.1349 18.3428L18.3424 13.1353L5.55084 0.343764C5.33108 0.123924 5.03304 0.000488281 4.72219 0.000488281H1.17186C0.524679 0.000488281 0 0.525167 0 1.17234V4.7226C0 5.03345 0.123435 5.33149 0.343275 5.55118L13.1349 18.3428Z" fill="#F0B587"/>
<path d="M36.4283 32.6535C36.3936 31.7367 36.0236 30.8277 35.3282 30.1323L33.2428 28.0469L28.0464 33.2432L30.1746 35.3714C30.8617 36.0585 31.7532 36.416 32.6534 36.445C32.6826 37.3451 33.0397 38.2365 33.7268 38.9236C35.1617 40.3585 37.4882 40.3585 38.9232 38.9236C40.3581 37.4887 40.3581 35.1621 38.9232 33.7272C38.2319 33.0361 37.3339 32.6788 36.4283 32.6535Z" fill="#F0B587"/>
<path d="M34.6361 21.6816C34.1785 21.2239 33.4364 21.224 32.9789 21.6816L21.6815 32.9789C21.2238 33.4365 21.2238 34.1786 21.6815 34.6361C22.1391 35.0937 22.8811 35.0937 23.3387 34.6361L34.6361 23.3388C35.0938 22.8813 35.0938 22.1392 34.6361 21.6816Z" fill="#F0B587"/>
<path d="M7.02049 21.6816C6.56292 21.224 5.8209 21.2239 5.36326 21.6816C4.90561 22.1392 4.90561 22.8812 5.36326 23.3388L16.6606 34.6361C17.1182 35.0937 17.8603 35.0937 18.3179 34.6361C18.7755 34.1786 18.7755 33.4365 18.3179 32.9789L7.02049 21.6816Z" fill="#F0B587"/>
</svg>
