<svg width="45" height="45" viewBox="0 0 54 54" fill="none" xmlns="http://www.w3.org/2000/svg">
<path fill-rule="evenodd" clip-rule="evenodd" d="M24.8996 12.6743C24.8996 12.6743 24.9 12.6742 24.5579 9.05916C24.2157 5.4441 24.2163 5.44405 24.2163 5.44405L24.2381 5.44202L24.2881 5.43747C24.3302 5.43368 24.3899 5.42842 24.4652 5.42205C24.6157 5.40932 24.8292 5.3921 25.0902 5.37329C25.61 5.33584 26.329 5.29132 27.1205 5.26398C28.5157 5.2158 30.7551 5.18853 32.3412 5.60055C33.6311 5.93563 34.6834 6.3314 35.6961 6.90012C36.6537 7.43793 37.4706 8.07628 38.2462 8.68673C40.3746 10.362 41.3888 11.7493 42.6595 13.7359C43.2764 14.7004 43.8501 15.9008 44.2316 16.7466C44.3141 16.9296 44.3912 17.1039 44.4615 17.2655C44.6935 17.4244 44.9546 17.6077 45.2318 17.8097C46.131 18.4653 47.4599 19.5047 48.4183 20.6558C50.0465 22.6115 50.9743 24.1837 51.6822 26.8186C52.1191 28.4452 52.3358 29.9634 52.2575 31.5555C52.1802 33.1282 51.8233 34.5908 51.328 36.0948C50.7981 37.704 50.1615 39.1119 49.242 40.4302C48.3281 41.7405 47.2379 42.8136 45.9749 43.8604C44.158 45.3664 42.5614 46.5158 39.7035 47.1631C36.6339 47.8583 34.5359 47.4381 32.0621 46.6969C30.6471 46.273 29.1867 45.4723 28.2422 44.9129C27.7331 44.6114 27.2949 44.3319 26.9825 44.127C26.8256 44.024 26.6985 43.9386 26.6079 43.877C26.5625 43.8462 26.5262 43.8212 26.4997 43.803L26.4674 43.7806L26.457 43.7733L26.451 43.7692C26.451 43.7692 26.4504 43.7687 28.5321 40.7935C30.6138 37.8182 30.6133 37.8178 30.6133 37.8178L30.6247 37.8257C30.6378 37.8348 30.66 37.85 30.6906 37.8708C30.7518 37.9124 30.8458 37.9757 30.9664 38.0548C31.2091 38.214 31.5511 38.432 31.9433 38.6643C32.8012 39.1725 33.6268 39.5844 34.1464 39.74C36.0228 40.3022 36.7422 40.3874 38.0993 40.08C39.3519 39.7964 39.9074 39.4568 41.3403 38.2691C42.3063 37.4684 42.8728 36.867 43.2854 36.2755C43.6925 35.6919 44.0521 34.9707 44.4301 33.8231C44.8142 32.6566 44.9704 31.8784 45.0038 31.1989C45.0363 30.5387 44.9613 29.7931 44.6684 28.7028C44.2777 27.2484 43.9139 26.5961 42.8369 25.3025C42.4834 24.8779 41.7692 24.2729 40.9534 23.6781C40.5802 23.4061 40.2403 23.1752 39.995 23.0133C39.8732 22.9328 39.7766 22.8707 39.7134 22.8305C39.6818 22.8104 39.6587 22.7958 39.6451 22.7873L39.6337 22.7802L39.6319 22.779L39.6309 22.7784L38.6098 22.148L38.1661 21.0294L38.1658 21.0286L38.1599 21.0139L38.1322 20.9455C38.107 20.8833 38.0686 20.7897 38.0193 20.6717C37.9202 20.4345 37.7787 20.1035 37.6114 19.7324C37.2561 18.9446 36.8593 18.146 36.5415 17.649C35.4978 16.0173 34.9958 15.3706 33.7544 14.3935C32.9405 13.7528 32.5378 13.4557 32.14 13.2323C31.7972 13.0399 31.3582 12.8487 30.5152 12.6297C30.1087 12.5241 28.913 12.4688 27.3711 12.5221C26.6941 12.5455 26.0692 12.584 25.6121 12.6169C25.3847 12.6333 25.2015 12.6481 25.0774 12.6586C25.0155 12.6639 24.9684 12.668 24.9382 12.6707L24.9058 12.6737L24.8996 12.6743Z" fill="#F0B587"/>
<path fill-rule="evenodd" clip-rule="evenodd" d="M26.7224 12.5406C26.7224 12.5406 26.7219 12.5407 26.5332 8.91435C26.3445 5.28805 26.344 5.28808 26.344 5.28808L26.3221 5.28925L26.272 5.29203C26.2297 5.29443 26.1699 5.29794 26.0944 5.30262C25.9437 5.31197 25.73 5.32606 25.4691 5.34552C24.9494 5.38426 24.2316 5.44507 23.4445 5.53346C22.0572 5.68925 19.8378 5.98886 18.3288 6.62776C17.1015 7.14737 16.1182 7.69237 15.1992 8.4027C14.3303 9.07441 13.6152 9.82506 12.9369 10.5421C11.0756 12.5098 10.2745 14.0302 9.30712 16.1809C8.8375 17.225 8.44492 18.4962 8.19087 19.3887C8.13591 19.5817 8.08511 19.7654 8.03906 19.9355C7.83279 20.1266 7.60113 20.346 7.35644 20.5862C6.56242 21.366 5.39932 22.588 4.61906 23.8666C3.29347 26.0389 2.60481 27.7295 2.28877 30.4395C2.09367 32.1124 2.10075 33.646 2.41037 35.2097C2.71621 36.7543 3.28253 38.1492 3.99187 39.5649C4.75084 41.0796 5.58597 42.3797 6.68783 43.5497C7.78308 44.7128 9.01815 45.6154 10.4202 46.4669C12.4373 47.6918 14.1845 48.5961 17.1062 48.8196C20.2444 49.0598 22.2587 48.3381 24.598 47.2441C25.9361 46.6183 27.2641 45.6133 28.1169 44.9221C28.5765 44.5496 28.9694 44.2091 29.2485 43.9609C29.3887 43.8361 29.502 43.7331 29.5827 43.6589C29.623 43.6218 29.6553 43.5918 29.6789 43.5699L29.7075 43.5431L29.7202 43.5312L29.7215 43.5299L29.7221 43.5294C29.7221 43.5294 29.7226 43.5289 27.2293 40.889C24.736 38.2491 24.7365 38.2486 24.7365 38.2486L24.7263 38.2581C24.7147 38.269 24.6949 38.2873 24.6677 38.3123C24.6132 38.3624 24.5294 38.4387 24.4217 38.5346C24.2048 38.7274 23.8983 38.993 23.5441 39.2801C22.7695 39.9079 22.0127 40.4358 21.5214 40.6655C19.7471 41.4953 19.0478 41.6845 17.6604 41.5784C16.3798 41.4804 15.7808 41.2255 14.1899 40.2594C13.1175 39.6082 12.4693 39.0958 11.9749 38.5708C11.4871 38.0528 11.0261 37.3917 10.4848 36.3115C9.93466 35.2135 9.66663 34.4665 9.53448 33.799C9.4061 33.1507 9.37153 32.4021 9.5023 31.2808C9.67675 29.7849 9.94153 29.0865 10.8183 27.6497C11.1061 27.1781 11.7245 26.4754 12.4449 25.768C12.7744 25.4444 13.0769 25.1665 13.296 24.9705C13.4049 24.8731 13.4913 24.7976 13.548 24.7486C13.5763 24.7241 13.597 24.7064 13.6093 24.6959L13.6195 24.6872L13.6211 24.6858L13.622 24.6851L14.5402 23.9125L14.8161 22.7412L14.8163 22.7403L14.82 22.7249L14.8374 22.6531C14.8533 22.588 14.8776 22.4898 14.9092 22.3658C14.9727 22.1167 15.0643 21.7686 15.1758 21.3771C15.4124 20.5459 15.6884 19.698 15.9304 19.16C16.725 17.3934 17.1272 16.6805 18.2129 15.5328C18.9247 14.7803 19.2798 14.4276 19.6408 14.1486C19.9518 13.9082 20.3582 13.6551 21.1603 13.3155C21.547 13.1517 22.7219 12.9227 24.255 12.7505C24.9282 12.6749 25.5521 12.6219 26.0091 12.5878C26.2365 12.5709 26.4198 12.5588 26.5441 12.5511C26.6062 12.5473 26.6533 12.5445 26.6836 12.5428L26.7162 12.541L26.7224 12.5406Z" fill="#F0B587"/>
<path fill-rule="evenodd" clip-rule="evenodd" d="M28.8437 29.9708C29.9496 29.9691 31.7759 30.0612 33.2608 30.8092C34.202 31.2832 34.9603 32.0366 35.3718 33.0487C35.7598 34.0032 35.7438 34.9517 35.6137 35.7096C35.3649 37.1585 34.5837 38.5623 33.8955 39.6125C33.166 40.7257 32.3342 41.7462 31.7046 42.471C31.3857 42.8381 31.1092 43.1402 30.9101 43.353C30.8103 43.4596 30.7295 43.5443 30.6718 43.604C30.643 43.634 30.6199 43.6577 30.6032 43.6748L30.5828 43.6956L30.5763 43.7023L30.573 43.7056C30.573 43.7056 30.5723 43.7063 28.6943 41.8496C26.8164 39.9928 26.8157 39.9935 26.8157 39.9935L26.8245 39.9845C26.8335 39.9753 26.8485 39.9599 26.869 39.9386C26.9101 39.896 26.9731 39.83 27.054 39.7436C27.216 39.5705 27.4478 39.3174 27.7171 39.0074C28.264 38.3778 28.9283 37.556 29.4778 36.7175C29.8406 36.1638 30.0865 35.7022 30.2358 35.349C29.8758 35.29 29.4053 35.2517 28.8516 35.2526C28.4125 35.2532 28.0139 35.2773 27.7251 35.3015C27.5822 35.3135 27.4697 35.3252 27.3969 35.3333C27.3606 35.3374 27.3344 35.3406 27.3196 35.3424L27.3059 35.3442L27.3095 35.3437C27.3095 35.3437 27.3103 35.3436 26.9549 32.7267C26.5995 30.1099 26.6004 30.1098 26.6004 30.1098L26.6035 30.1093L26.6088 30.1086L26.6231 30.1067L26.6661 30.1013C26.701 30.0969 26.7484 30.0912 26.8069 30.0846C26.9238 30.0715 27.0863 30.0547 27.2843 30.0381C27.6776 30.0052 28.2253 29.9717 28.8437 29.9708Z" fill="#F0B587"/>
<path fill-rule="evenodd" clip-rule="evenodd" d="M25.8098 30.1919C24.6121 30.3579 22.7193 30.7165 21.2908 31.6274C20.404 32.193 19.6747 33.0279 19.3642 34.1415C19.0678 35.2041 19.2435 36.197 19.5138 36.956C20.0242 38.3885 21.1159 39.6675 22.0235 40.5889C22.9941 41.5741 24.0619 42.4515 24.8618 43.0681C25.2672 43.3805 25.6159 43.6353 25.866 43.8138C25.9913 43.9032 26.0924 43.9739 26.1642 44.0236C26.2001 44.0485 26.2287 44.0681 26.2494 44.0822L26.2745 44.0993L26.2863 44.1073C26.2863 44.1073 26.2872 44.1079 27.763 41.9179C29.2388 39.7278 29.2395 39.7283 29.2395 39.7283L29.2274 39.7201C29.2158 39.7121 29.1965 39.6989 29.1703 39.6808C29.1178 39.6444 29.0375 39.5883 28.9344 39.5147C28.7278 39.3673 28.4321 39.1514 28.0863 38.8848C27.3839 38.3434 26.5225 37.6296 25.7861 36.8821C25.3601 36.4497 25.0495 36.0787 24.8364 35.7823C25.2821 35.643 25.8662 35.5164 26.5348 35.4237C27.0365 35.3542 27.4944 35.3153 27.8267 35.2941C27.9916 35.2835 28.1224 35.2775 28.2084 35.2742C28.2513 35.2726 28.2828 35.2716 28.3016 35.2711L28.32 35.2706L28.3188 35.2707C28.3188 35.2707 28.3181 35.2707 28.2718 32.6302C28.2255 29.9897 28.2246 29.9897 28.2246 29.9897L28.2165 29.9899L28.202 29.9902L28.1569 29.9913C28.12 29.9923 28.0693 29.9939 28.0062 29.9963C27.8803 30.0012 27.7044 30.0093 27.4898 30.023C27.0632 30.0503 26.4714 30.1002 25.8098 30.1919Z" fill="#F0B587"/>
<path fill-rule="evenodd" clip-rule="evenodd" d="M29.1759 45.7085C29.1759 45.7085 29.1761 45.709 31.3634 44.9638C33.5507 44.2186 33.5509 44.2191 33.5509 44.2191L33.5531 44.2256L33.5574 44.2383L33.5713 44.28C33.5828 44.3147 33.5987 44.3633 33.6181 44.4237C33.6568 44.5442 33.7099 44.7135 33.7697 44.9158C33.8873 45.3141 34.0395 45.8688 34.158 46.4452C34.2672 46.9761 34.3884 47.7099 34.3496 48.3959C34.3312 48.7214 34.267 49.2831 33.9591 49.8405C33.5827 50.5218 32.8524 51.1435 31.8219 51.2191L28.9882 51.4268L28.6499 46.8177L29.4854 46.7564C29.4359 46.5666 29.3848 46.3855 29.3375 46.2251C29.2896 46.063 29.2475 45.9289 29.218 45.8372C29.2034 45.7915 29.1919 45.7567 29.1846 45.7346L29.1769 45.7115L29.1759 45.7085Z" fill="#F0B587"/>
<path fill-rule="evenodd" clip-rule="evenodd" d="M27.9723 44.4179C27.9723 44.4179 27.9722 44.4183 25.69 44.056C23.4079 43.6938 23.4078 43.6943 23.4078 43.6943L23.4066 43.7017L23.4042 43.7173L23.396 43.7709C23.3891 43.8161 23.3796 43.8802 23.3682 43.9603C23.3454 44.1203 23.3148 44.3458 23.2823 44.6152C23.2181 45.1479 23.1433 45.8784 23.1108 46.623C23.0801 47.3258 23.0776 48.2095 23.2249 48.9753C23.2944 49.3364 23.4384 49.9079 23.8025 50.4356C24.2357 51.0635 25.0717 51.7143 26.2451 51.6283L29.646 51.379L29.3083 46.7698L27.7254 46.8858C27.7262 46.8657 27.727 46.8453 27.7279 46.8248C27.7534 46.2411 27.814 45.6376 27.8706 45.1686C27.8985 44.937 27.9247 44.7446 27.9436 44.6119C27.953 44.5457 27.9606 44.4947 27.9656 44.4615L27.9711 44.4255L27.9723 44.4179ZM27.7737 48.1466C27.7737 48.1466 27.7722 48.1386 27.7679 48.1247C27.7713 48.14 27.7737 48.1466 27.7737 48.1466Z" fill="#F0B587"/>
<path fill-rule="evenodd" clip-rule="evenodd" d="M26.4523 9.76813C26.4523 9.76813 26.4526 9.7688 28.8833 8.73631C31.3139 7.70382 31.3143 7.7046 31.3143 7.7046L31.3156 7.70762L31.3179 7.71318L31.3248 7.72954L31.3468 7.78255C31.365 7.82666 31.3901 7.88812 31.4209 7.96499C31.4822 8.1185 31.5665 8.33473 31.6633 8.59793C31.8554 9.11991 32.1049 9.84772 32.323 10.6496C32.537 11.4364 32.744 12.3777 32.8131 13.306C32.8751 14.1394 32.8679 15.4204 32.2243 16.5567C31.7171 17.4523 31.0565 18.3088 30.1322 18.9688C29.1884 19.6426 28.1247 20.0012 26.9835 20.1247C25.7583 20.2573 24.5645 20.0999 23.4484 19.5751C22.3543 19.0606 21.5022 18.2717 20.8184 17.3975C20.0787 16.4518 19.8129 15.2845 19.6913 14.4705C19.5574 13.5738 19.5367 12.6368 19.5555 11.8373C19.5746 11.0247 19.6366 10.2785 19.6927 9.74002C19.7209 9.46874 19.7482 9.24521 19.7689 9.08634C19.7793 9.0068 19.788 8.94316 19.7945 8.89752L19.8023 8.8427L19.8048 8.82584L19.8061 8.81705C19.8061 8.81705 19.8063 8.81625 22.4176 9.21029C25.0289 9.60433 25.029 9.60365 25.029 9.60365L25.0286 9.60657L25.0244 9.63578C25.0204 9.66391 25.0142 9.70888 25.0064 9.7687C24.9908 9.88854 24.969 10.0667 24.946 10.2873C24.8996 10.7325 24.8506 11.3309 24.8358 11.9613C24.8207 12.6047 24.8433 13.2093 24.9151 13.6904C24.9642 14.019 25.0195 14.172 25.0327 14.2112C25.3328 14.5801 25.5549 14.729 25.696 14.7954C25.8236 14.8554 26.0245 14.9159 26.4152 14.8736C26.7944 14.8325 26.9637 14.7412 27.063 14.6702C27.1694 14.5943 27.335 14.4394 27.5509 14.0859C27.5559 14.0225 27.5608 13.8988 27.5459 13.698C27.5118 13.2408 27.3964 12.6611 27.2264 12.0359C27.0604 11.4257 26.8642 10.8503 26.7066 10.4221C26.6286 10.2102 26.562 10.0396 26.5162 9.925C26.4934 9.86783 26.4758 9.82495 26.4648 9.79822L26.4533 9.77059L26.4523 9.76813Z" fill="#F0B587"/>
<path fill-rule="evenodd" clip-rule="evenodd" d="M39.6456 9.92172C39.9099 9.18716 40.0166 8.75318 40.0341 8.60167C40.0715 8.27713 40.0231 7.71752 39.8231 7.12891C39.6297 6.5599 39.397 6.25862 39.2957 6.16288C39.2553 6.14897 39.132 6.11686 38.8698 6.12079C38.4408 6.12723 37.9062 6.227 37.2838 6.39154C37.2571 6.40962 37.1234 6.49074 36.8828 6.7165C36.5473 7.0313 36.1764 7.46318 35.8106 7.94421C35.4521 8.41561 35.138 8.8818 34.9118 9.234C34.7997 9.40844 34.7117 9.55094 34.6534 9.64707C34.6243 9.69505 34.6027 9.73121 34.5893 9.75373L34.5746 9.77881C34.5746 9.77881 34.5749 9.77821 32.2903 8.45354C30.0057 7.12886 30.0061 7.12817 30.0061 7.12817L30.0065 7.12739L30.0104 7.1207L30.0186 7.1066L30.0454 7.06122C30.0677 7.02358 30.0989 6.97137 30.1383 6.90652C30.2169 6.777 30.3287 6.59601 30.468 6.37914C30.7446 5.94872 31.1396 5.36097 31.6064 4.7471C32.0659 4.14286 32.6364 3.45816 33.2685 2.86502C33.8449 2.32414 34.7298 1.60961 35.8334 1.31204C36.6134 1.10171 37.6795 0.856289 38.7906 0.839621C39.8971 0.823023 41.3447 1.02962 42.588 2.03113C43.7316 2.95228 44.4313 4.27391 44.824 5.42965C45.2249 6.60948 45.4246 7.96285 45.281 9.20713C45.1882 10.0119 44.8926 10.9397 44.6155 11.7099C44.3174 12.5384 43.952 13.4209 43.6068 14.2122C43.2594 15.0083 42.9209 15.7385 42.67 16.2683C42.5442 16.5339 42.4396 16.7508 42.3659 16.9025C42.329 16.9783 42.2998 17.038 42.2795 17.0793L42.2559 17.1274L42.2468 17.1458C42.2468 17.1458 42.2464 17.1465 39.8803 15.9735C37.5143 14.8004 37.5142 14.8006 37.5142 14.8006L37.5195 14.7899L37.5387 14.7509C37.5559 14.7158 37.5819 14.6628 37.6154 14.5939C37.6823 14.4561 37.7792 14.2552 37.8965 14.0075C38.1319 13.5106 38.4463 12.8322 38.7657 12.1001C39.0871 11.3633 39.4023 10.598 39.6456 9.92172Z" fill="#F0B587"/>
<path fill-rule="evenodd" clip-rule="evenodd" d="M12.7433 12.0018C12.3747 11.3137 12.2058 10.8999 12.1665 10.7525C12.0821 10.4369 12.0484 9.87623 12.1604 9.26475C12.2687 8.67363 12.455 8.34164 12.5413 8.23213C12.5792 8.2125 12.6965 8.16274 12.9565 8.12839C13.3818 8.07221 13.9253 8.09294 14.565 8.16496C14.5941 8.17895 14.7382 8.23971 15.0092 8.42797C15.3869 8.69048 15.8169 9.06366 16.2489 9.4862C16.6723 9.90028 17.051 10.3157 17.3262 10.6311C17.4625 10.7873 17.5704 10.9155 17.6421 11.0021C17.6779 11.0453 17.7045 11.0779 17.721 11.0983L17.7393 11.1209C17.7393 11.1209 17.7389 11.1204 19.8059 9.4767C21.8729 7.83301 21.8724 7.83239 21.8724 7.83239L21.867 7.82564L21.8568 7.81289L21.8237 7.77189C21.7962 7.73791 21.7577 7.6908 21.7093 7.63239C21.6126 7.51572 21.4756 7.35298 21.3061 7.15874C20.9698 6.77324 20.4933 6.24938 19.9419 5.71015C19.3992 5.17938 18.7349 4.5852 18.0231 4.09059C17.3741 3.63954 16.3944 3.06169 15.2592 2.92825C14.4568 2.83392 13.3664 2.74659 12.2647 2.89213C11.1677 3.03707 9.76563 3.45257 8.68165 4.62469C7.68464 5.70275 7.18511 7.1123 6.96514 8.31296C6.7406 9.53864 6.74039 10.9067 7.0639 12.1167C7.27313 12.8993 7.70088 13.7741 8.08736 14.4956C8.50308 15.2718 8.99324 16.0916 9.45019 16.8241C9.90993 17.5611 10.3513 18.2341 10.6768 18.7216C10.84 18.9661 10.9751 19.1654 11.0701 19.3047C11.1176 19.3743 11.1552 19.4291 11.1813 19.467L11.2118 19.5111L11.2234 19.528C11.2234 19.528 11.2239 19.5287 13.3936 18.0231C15.5633 16.5176 15.5634 16.5178 15.5634 16.5178L15.5566 16.5079L15.5319 16.4721C15.5097 16.4399 15.4763 16.3912 15.4332 16.328C15.3468 16.2014 15.2217 16.0168 15.0695 15.7888C14.7642 15.3316 14.3542 14.7063 13.9315 14.0286C13.506 13.3465 13.0827 12.6354 12.7433 12.0018Z" fill="#F0B587"/>
<path d="M23.8853 26.9763C24.0186 28.7946 22.9475 30.355 21.4929 30.4617C20.0383 30.5683 18.751 29.1807 18.6177 27.3625C18.4844 25.5442 19.5556 23.9838 21.0102 23.8771C22.4648 23.7705 23.7521 25.158 23.8853 26.9763Z" fill="#F0B587"/>
<path d="M35.7375 26.1075C35.8708 27.9257 34.7997 29.4862 33.345 29.5928C31.8904 29.6994 30.6032 28.3119 30.4699 26.4936C30.3366 24.6754 31.4077 23.1149 32.8623 23.0083C34.317 22.9016 35.6042 24.2892 35.7375 26.1075Z" fill="#F0B587"/>
</svg>
