<svg width="40" height="40" viewBox="0 0 40 40" fill="none" xmlns="http://www.w3.org/2000/svg">
<path d="M39.3282 17.7712L35.949 14.5318V3.79037C35.949 3.10692 35.4224 2.55276 34.7727 2.55276H26.6387C25.9891 2.55276 25.4624 3.10684 25.4624 3.79037V4.47866L21.3815 0.566445C20.5937 -0.188842 19.4058 -0.18876 18.6184 0.566362L0.671707 17.7713C0.0407693 18.3762 -0.167746 19.3083 0.140535 20.1458C0.448894 20.9833 1.19968 21.5244 2.05335 21.5244H4.91967V38.7623C4.91967 39.4458 5.44631 39.9999 6.096 39.9999H15.933C16.5826 39.9999 17.1093 39.4458 17.1093 38.7623V28.296H22.8906V38.7624C22.8906 39.4458 23.4172 40 24.0669 40H33.9035C34.5531 40 35.0798 39.4459 35.0797 38.7624V21.5244H37.9467C38.8003 21.5244 39.5511 20.9833 39.8595 20.1459C40.1677 19.3083 39.9593 18.3762 39.3282 17.7712ZM33.9035 19.0492C33.2539 19.0492 32.7272 19.6033 32.7272 20.2868V37.5248H25.2433V27.0584C25.2433 26.3749 24.7166 25.8208 24.067 25.8208H15.933C15.2833 25.8208 14.7566 26.3748 14.7566 27.0584V37.5248H7.27225V20.2868C7.27225 19.6034 6.74561 19.0492 6.09592 19.0492H2.83163L20.0001 2.59057L25.8466 8.19551C26.191 8.5256 26.6881 8.61067 27.1141 8.41283C27.5402 8.21474 27.8151 7.77073 27.8151 7.28068V5.02797H33.5965V15.0784C33.5965 15.4267 33.7359 15.7587 33.9806 15.9932L37.1683 19.0492H33.9035Z" fill="#F0B587"/>
</svg>
